<svg xmlns="http://www.w3.org/2000/svg" width="640" height="495" viewBox="0 0 640 495" role="img" aria-labelledby="map-title map-desc">
<title id="map-title">The shape of my public work</title>
<desc id="map-desc">20 public non-fork, non-archived repositories, grouped by primary language: Python: 7, TypeScript: 6, JavaScript: 3, Other languages: 4. Each small node is one repository. This measures repository distribution, not proficiency.</desc>
<rect width="640" height="495" rx="8" fill="#10191b"/>
<style>text{font-family:Consolas,"Liberation Mono",monospace}</style>
<text x="32" y="40" font-size="26" fill="#edf2e8">The shape of my public work</text>
<text x="32" y="73" font-size="18" fill="#a6b5ad">One node, one repository.</text>
<path d="M34 148V202H269" fill="none" stroke="#a6b5ad" stroke-opacity=".32"/>
<text x="34" y="140" fill="#edf2e8" font-size="22">Python</text>
<text x="34" y="169" fill="#a6b5ad" font-size="18">7 repositories</text>
<circle cx="48" cy="202" r="4" fill="#bce16b"/>
<circle cx="67" cy="202" r="4" fill="#bce16b"/>
<circle cx="86" cy="202" r="4" fill="#bce16b"/>
<circle cx="105" cy="202" r="4" fill="#bce16b"/>
<circle cx="124" cy="202" r="4" fill="#bce16b"/>
<circle cx="143" cy="202" r="4" fill="#bce16b"/>
<circle cx="162" cy="202" r="4" fill="#bce16b"/>
<path d="M332 148V202H567" fill="none" stroke="#a6b5ad" stroke-opacity=".32"/>
<text x="332" y="140" fill="#edf2e8" font-size="22">TypeScript</text>
<text x="332" y="169" fill="#a6b5ad" font-size="18">6 repositories</text>
<circle cx="346" cy="202" r="4" fill="#bce16b"/>
<circle cx="365" cy="202" r="4" fill="#bce16b"/>
<circle cx="384" cy="202" r="4" fill="#bce16b"/>
<circle cx="403" cy="202" r="4" fill="#bce16b"/>
<circle cx="422" cy="202" r="4" fill="#bce16b"/>
<circle cx="441" cy="202" r="4" fill="#bce16b"/>
<path d="M34 318V372H269" fill="none" stroke="#a6b5ad" stroke-opacity=".32"/>
<text x="34" y="310" fill="#edf2e8" font-size="22">JavaScript</text>
<text x="34" y="339" fill="#a6b5ad" font-size="18">3 repositories</text>
<circle cx="48" cy="372" r="4" fill="#bce16b"/>
<circle cx="67" cy="372" r="4" fill="#bce16b"/>
<circle cx="86" cy="372" r="4" fill="#bce16b"/>
<path d="M332 318V372H567" fill="none" stroke="#a6b5ad" stroke-opacity=".32"/>
<text x="332" y="310" fill="#edf2e8" font-size="22">Other languages</text>
<text x="332" y="339" fill="#a6b5ad" font-size="18">4 repositories</text>
<circle cx="346" cy="372" r="4" fill="#bce16b"/>
<circle cx="365" cy="372" r="4" fill="#bce16b"/>
<circle cx="384" cy="372" r="4" fill="#bce16b"/>
<circle cx="403" cy="372" r="4" fill="#bce16b"/>
<text x="32" y="467" fill="#a6b5ad" font-size="15">Public work · forks and archives excluded</text>
</svg>
